<svg id="courses" xmlns="http://www.w3.org/2000/svg" width="89.321" height="89.295" viewBox="0 0 89.321 89.295">
  <g id="Group_70" data-name="Group 70" transform="translate(0 0.369)">
    <g id="Group_69" data-name="Group 69" transform="translate(0 0)">
      <path id="Path_67" data-name="Path 67" d="M88.049,25.131h0l0,0-5.765-.823a1.482,1.482,0,0,1-.68-2.653l4.66-3.495a1.482,1.482,0,0,0,.3-2.075L81.221,8.968a1.482,1.482,0,0,0-2.075-.3l-4.658,3.495a1.482,1.482,0,0,1-2.362-1.395l.824-5.765a1.482,1.482,0,0,0-1.257-1.678h0l-8.8-1.257a1.482,1.482,0,0,0-1.678,1.256h0l-.824,5.765a1.482,1.482,0,0,1-2.653.68l-3.493-4.66a1.482,1.482,0,0,0-2.075-.3L47.716,8.16a28.677,28.677,0,0,0-6.062,0,28.16,28.16,0,0,0-24.83,25.251c-.04.419-.055.836-.076,1.252H16.3a1.482,1.482,0,0,0-1.449,1.186l-1.024,4.87-4.1-2.829a1.482,1.482,0,0,0-1.89.172L3.393,42.508A1.482,1.482,0,0,0,3.221,44.4l2.816,4.1L1.165,49.516A1.482,1.482,0,0,0,0,50.967V56.9a1.482,1.482,0,0,0,1.177,1.451L6.048,59.37l-2.816,4.1A1.482,1.482,0,0,0,3.4,65.353L7.851,69.8a1.482,1.482,0,0,0,1.89.172l4.1-2.823L14.86,72.02a1.482,1.482,0,0,0,1.449,1.186h5.928a1.482,1.482,0,0,0,1.451-1.177l1.024-4.872,4.1,2.816A1.482,1.482,0,0,0,30.7,69.8L33,67.492v4.224a5.909,5.909,0,0,0,2.964,5.1v8.235a5.928,5.928,0,0,0,5.928,5.928h5.928a5.928,5.928,0,0,0,5.928-5.928V76.82a5.909,5.909,0,0,0,2.964-5.1V65.85a7.262,7.262,0,0,1,3.428-6.05,28.443,28.443,0,0,0,3.489-2.668l-1.977-2.208a25.23,25.23,0,0,1-3.123,2.388,10.209,10.209,0,0,0-4.781,8.538v5.866a2.964,2.964,0,0,1-2.964,2.964H38.926a2.964,2.964,0,0,1-2.964-2.964V65.727a9.972,9.972,0,0,0-4.7-8.365,25.12,25.12,0,0,1,13.275-46.39,1.611,1.611,0,0,0-.058.162,1.482,1.482,0,0,0,.283,1.1l3.493,4.658a1.451,1.451,0,0,1,.089,1.645,1.473,1.473,0,0,1-1.482.713L41.1,18.424a1.482,1.482,0,0,0-1.678,1.257v0l-1.258,8.8a1.482,1.482,0,0,0,1.257,1.678h0l5.765.824a1.482,1.482,0,0,1,.68,2.653l-4.658,3.493a1.482,1.482,0,0,0-.3,2.075l5.336,7.114a1.482,1.482,0,0,0,2.075.3l4.66-3.493a1.482,1.482,0,0,1,2.355,1.395l-.823,5.765a1.482,1.482,0,0,0,1.256,1.678h0l8.8,1.258a1.642,1.642,0,0,0,.209.013,1.482,1.482,0,0,0,1.469-1.272l.823-5.765a1.482,1.482,0,0,1,2.653-.68l3.495,4.658a1.482,1.482,0,0,0,2.075.3l7.114-5.336a1.482,1.482,0,0,0,.3-2.075L79.213,38.4a1.457,1.457,0,0,1-.089-1.645,1.439,1.439,0,0,1,1.482-.711l5.765.823a1.482,1.482,0,0,0,1.678-1.256h0l1.257-8.8A1.482,1.482,0,0,0,88.049,25.131ZM38.926,77.645H50.783v2.964H38.926Zm0,5.928H50.783v1.482a2.964,2.964,0,0,1-2.964,2.964H41.89a2.964,2.964,0,0,1-2.964-2.964Zm-11.8-25.559a28.012,28.012,0,0,0,2.533,1.845,7.234,7.234,0,0,1,2.986,3.793l-3.179,3.173L26.389,64.7a2.964,2.964,0,0,0-4.583,1.83l-.777,3.7H17.507l-.777-3.695a2.964,2.964,0,0,0-4.583-1.83l-3.08,2.116-2.7-2.694,2.121-3.077A2.964,2.964,0,0,0,6.659,56.47l-3.695-.778V52.17l3.695-.778a2.964,2.964,0,0,0,1.83-4.575L6.367,43.731l2.7-2.694,3.081,2.122a2.964,2.964,0,0,0,4.581-1.832l.259-1.233a28.224,28.224,0,0,0,1.175,5.026,8.893,8.893,0,1,0,8.962,12.894Zm-2.3-2.088A5.92,5.92,0,1,1,19.267,48h.056A28.07,28.07,0,0,0,24.825,55.926Zm60.491-22.2-4.3-.614a4.446,4.446,0,0,0-4.185,7.07l2.6,3.473-4.743,3.557-2.606-3.471a4.446,4.446,0,0,0-7.959,2.038l-.6,4.3-5.868-.839.614-4.3a4.446,4.446,0,0,0-7.07-4.187l-3.473,2.6-3.557-4.743,3.471-2.606a4.446,4.446,0,0,0-2.038-7.959l-4.3-.614.839-5.868,4.3.614a4.446,4.446,0,0,0,4.187-7.07l-2.613-3.476L52.764,8.08l2.606,3.473a4.446,4.446,0,0,0,7.959-2.038l.614-4.3,5.868.837-.614,4.3a4.446,4.446,0,0,0,7.07,4.185l3.473-2.6L83.3,16.677l-3.473,2.606a4.446,4.446,0,0,0,2.038,7.959l4.3.614Z" transform="translate(0 -2.057)" fill="rgba(255,255,255,0.8)"/>
    </g>
  </g>
  <g id="Group_72" data-name="Group 72" transform="translate(51.874 14.099)">
    <g id="Group_71" data-name="Group 71">
      <path id="Path_68" data-name="Path 68" d="M291.857,76.171a11.857,11.857,0,1,0,11.857,11.857A11.857,11.857,0,0,0,291.857,76.171Zm0,20.749a8.893,8.893,0,1,1,8.893-8.893A8.893,8.893,0,0,1,291.857,96.92Z" transform="translate(-280 -76.171)" fill="rgba(255,255,255,0.8)"/>
    </g>
  </g>
  <g id="Group_74" data-name="Group 74" transform="translate(43.372 65.582)">
    <g id="Group_73" data-name="Group 73">
      <rect id="Rectangle_48" data-name="Rectangle 48" width="2.964" height="4.446" fill="rgba(255,255,255,0.8)"/>
    </g>
  </g>
  <g id="Group_76" data-name="Group 76" transform="translate(24.092 16.9)">
    <g id="Group_75" data-name="Group 75">
      <path id="Path_69" data-name="Path 69" d="M144.324,125.416a17.785,17.785,0,0,1-3-31.618l-1.584-2.508a20.75,20.75,0,0,0,3.511,36.884,9.462,9.462,0,0,1,6.077,8.833h2.964A12.4,12.4,0,0,0,144.324,125.416Z" transform="translate(-130.044 -91.291)" fill="rgba(255,255,255,0.8)"/>
    </g>
  </g>
  <g id="Group_78" data-name="Group 78" transform="translate(73.014 55.207)">
    <g id="Group_77" data-name="Group 77">
      <rect id="Rectangle_49" data-name="Rectangle 49" width="10.375" height="2.964" fill="rgba(255,255,255,0.8)"/>
    </g>
  </g>
  <g id="Group_80" data-name="Group 80" transform="translate(70.584 62.96)">
    <g id="Group_79" data-name="Group 79" transform="translate(0 0)">
      <rect id="Rectangle_50" data-name="Rectangle 50" width="2.964" height="11.575" transform="matrix(0.64, -0.768, 0.768, 0.64, 0, 2.277)" fill="rgba(255,255,255,0.8)"/>
    </g>
  </g>
  <g id="Group_82" data-name="Group 82" transform="translate(64.122 67.064)">
    <g id="Group_81" data-name="Group 81">
      <rect id="Rectangle_51" data-name="Rectangle 51" width="2.964" height="10.375" fill="rgba(255,255,255,0.8)"/>
    </g>
  </g>
  <g id="Group_84" data-name="Group 84" transform="translate(1.513 22.644)">
    <g id="Group_83" data-name="Group 83" transform="translate(0 0)">
      <rect id="Rectangle_52" data-name="Rectangle 52" width="12.221" height="2.963" transform="translate(0 2.964) rotate(-14.035)" fill="rgba(255,255,255,0.8)"/>
    </g>
  </g>
  <g id="Group_86" data-name="Group 86" transform="translate(3.975 8.058)">
    <g id="Group_85" data-name="Group 85" transform="translate(0 0)">
      <rect id="Rectangle_53" data-name="Rectangle 53" width="2.963" height="12.749" transform="matrix(0.581, -0.814, 0.814, 0.581, 0, 2.411)" fill="rgba(255,255,255,0.8)"/>
    </g>
  </g>
  <g id="Group_88" data-name="Group 88" transform="translate(16.674 0)">
    <g id="Group_87" data-name="Group 87" transform="translate(0)">
      <rect id="Rectangle_54" data-name="Rectangle 54" width="2.964" height="12.238" transform="matrix(0.969, -0.248, 0.248, 0.969, 0, 0.734)" fill="rgba(255,255,255,0.8)"/>
    </g>
  </g>
</svg>
