<svg id="teacher" xmlns="http://www.w3.org/2000/svg" width="91.086" height="91.086" viewBox="0 0 91.086 91.086">
  <g id="Group_54" data-name="Group 54" transform="translate(0 0)">
    <g id="Group_53" data-name="Group 53">
      <path id="Path_62" data-name="Path 62" d="M89.569,0H1.518A1.518,1.518,0,0,0,0,1.517H0V31.88H3.036V3.036H88.05v33.4H34.916v3.036H89.568a1.518,1.518,0,0,0,1.518-1.517h0V1.518A1.518,1.518,0,0,0,89.569,0Z" transform="translate(0 0)" fill="rgba(255,255,255,0.8)"/>
    </g>
  </g>
  <g id="Group_56" data-name="Group 56" transform="translate(50 8.29)">
    <g id="Group_55" data-name="Group 55" transform="translate(0 0)">
      <rect id="Rectangle_45" data-name="Rectangle 45" width="31" height="3" transform="translate(0 0)" fill="rgba(255,255,255,0.8)"/>
    </g>
  </g>
  <g id="Group_58" data-name="Group 58" transform="translate(55 17.29)">
    <g id="Group_57" data-name="Group 57" transform="translate(0 0)">
      <rect id="Rectangle_46" data-name="Rectangle 46" width="30" height="3" transform="translate(0 0)" fill="rgba(255,255,255,0.8)"/>
    </g>
  </g>
  <g id="Group_60" data-name="Group 60" transform="translate(48 25.29)">
    <g id="Group_59" data-name="Group 59" transform="translate(0 0)">
      <rect id="Rectangle_47" data-name="Rectangle 47" width="31" height="4" transform="translate(0 0)" fill="rgba(255,255,255,0.8)"/>
    </g>
  </g>
  <g id="Group_62" data-name="Group 62" transform="translate(0 6.072)">
    <g id="Group_61" data-name="Group 61">
      <path id="Path_63" data-name="Path 63" d="M48.458,39.016a4.9,4.9,0,0,0-6.405-2.641l-.127.055-12.31,6.386a7.507,7.507,0,0,0,.746-3.225,7.591,7.591,0,1,0-13.624,4.554h-.063A10.418,10.418,0,0,0,7,50.884L2.945,64.853a4.862,4.862,0,1,0,9.13,3.345l1.588-5.052V85.116A7.568,7.568,0,0,0,3.812,96.57,6.994,6.994,0,0,0,0,102.774V115.5a1.518,1.518,0,0,0,1.517,1.518H16.7a1.518,1.518,0,0,0,1.518-1.517h0V102.774a6.978,6.978,0,0,0-2.709-5.5H27a6.976,6.976,0,0,0-2.709,5.5V115.5a1.518,1.518,0,0,0,1.517,1.518H40.989a1.518,1.518,0,0,0,1.518-1.517h0V102.774a6.994,6.994,0,0,0-3.812-6.2A7.584,7.584,0,0,0,31.88,83.713V52.657l13.936-7.236A4.9,4.9,0,0,0,48.458,39.016Zm-25.687-3.98a4.554,4.554,0,1,1-4.554,4.554A4.554,4.554,0,0,1,22.772,35.036ZM9.109,86.6A4.554,4.554,0,1,1,4.554,91.15,4.554,4.554,0,0,1,9.109,86.6Zm6.072,27.382H3.036v-11.2A3.983,3.983,0,0,1,7.015,98.8H11.2a3.983,3.983,0,0,1,3.978,3.978Zm24.29-11.2v11.2H27.326v-11.2A3.983,3.983,0,0,1,31.3,98.8h4.188A3.983,3.983,0,0,1,39.471,102.774ZM33.4,86.6a4.554,4.554,0,1,1-4.554,4.554A4.559,4.559,0,0,1,33.4,86.6ZM45.68,41.549a1.952,1.952,0,0,1-1.146,1.124L29.663,50.388a1.518,1.518,0,0,0-.819,1.348V85.116a7.488,7.488,0,0,0-2.362,9.126H24.29V68.434H21.253V94.242H16.025a7.52,7.52,0,0,0,.668-3.036H16.7V53.253a1.518,1.518,0,0,0-2.966-.455L9.2,67.223a1.825,1.825,0,0,1-2.532,1.01,1.863,1.863,0,0,1-.848-2.411L9.872,51.854a7.334,7.334,0,0,1,6.8-4.673H27.424a1.512,1.512,0,0,0,.7-.17l15.088-7.832a1.869,1.869,0,0,1,2.389.885A1.847,1.847,0,0,1,45.68,41.549Z" transform="translate(0 -32)" fill="rgba(255,255,255,0.8)"/>
    </g>
  </g>
  <g id="Group_64" data-name="Group 64" transform="translate(48.579 57.615)">
    <g id="Group_63" data-name="Group 63">
      <path id="Path_64" data-name="Path 64" d="M270.405,316.646a7.591,7.591,0,1,0-10.734-.14q.069.071.14.14a6.994,6.994,0,0,0-3.812,6.2v12.721a1.518,1.518,0,0,0,1.517,1.518H272.7a1.518,1.518,0,0,0,1.518-1.517h0V322.849A6.994,6.994,0,0,0,270.405,316.646Zm-5.3-9.975a4.554,4.554,0,1,1-4.554,4.554A4.554,4.554,0,0,1,265.109,306.671Zm6.072,27.382H259.036v-11.2a3.983,3.983,0,0,1,3.978-3.978H267.2a3.983,3.983,0,0,1,3.978,3.978Z" transform="translate(-256 -303.618)" fill="rgba(255,255,255,0.8)"/>
    </g>
  </g>
  <g id="Group_66" data-name="Group 66" transform="translate(72.869 57.615)">
    <g id="Group_65" data-name="Group 65">
      <path id="Path_65" data-name="Path 65" d="M398.405,316.646a7.591,7.591,0,1,0-10.734-.14q.069.071.14.14a6.994,6.994,0,0,0-3.812,6.2v12.721a1.518,1.518,0,0,0,1.517,1.518H400.7a1.518,1.518,0,0,0,1.518-1.517h0V322.849A6.994,6.994,0,0,0,398.405,316.646Zm-5.3-9.975a4.554,4.554,0,1,1-4.554,4.554A4.554,4.554,0,0,1,393.109,306.671Zm6.072,27.382H387.036v-11.2a3.983,3.983,0,0,1,3.978-3.978H395.2a3.983,3.983,0,0,1,3.978,3.978Z" transform="translate(-384 -303.618)" fill="rgba(255,255,255,0.8)"/>
    </g>
  </g>
</svg>
