<svg xmlns="http://www.w3.org/2000/svg" width="76.565" height="91.769" viewBox="0 0 76.565 91.769">
  <path id="student_2_" data-name="student (2)" d="M75.208,81a1.357,1.357,0,0,0,1.358-1.358v-.849a15.883,15.883,0,0,0-11.6-15.26L50.1,59.4l-3.945-3.945V49.629A18.445,18.445,0,0,0,56.2,37.105h1.813a4.983,4.983,0,0,0,4.978-4.977V29.593a4.964,4.964,0,0,0-1.629-3.679V2.715h6.154V15.951a4.616,4.616,0,0,0,0,8.823v3.371a1.357,1.357,0,1,0,2.714,0V24.774a4.616,4.616,0,0,0,0-8.823V2.715h1.358a1.358,1.358,0,0,0,0-2.715H4.978a1.358,1.358,0,1,0,0,2.715H15.2V5.438a1.358,1.358,0,0,0,2.715,0V2.715H58.646V18.643H17.92V11.776a1.358,1.358,0,0,0-2.715,0V25.914a4.966,4.966,0,0,0-1.629,3.68v2.534a4.984,4.984,0,0,0,4.978,4.978h1.813A18.442,18.442,0,0,0,30.409,49.63v5.828L26.464,59.4,11.6,63.533A15.883,15.883,0,0,0,0,78.793v.849a1.358,1.358,0,0,0,2.715,0v-.849a13.159,13.159,0,0,1,9.611-12.644l8.952-2.487L26.309,79.6a1.366,1.366,0,0,0,.311.527l8.5,8.929H16.472V84.8a1.358,1.358,0,0,0-2.715,0v4.253H2.715V85.965a1.358,1.358,0,0,0-2.715,0v4.446a1.357,1.357,0,0,0,1.358,1.358h73.85a1.357,1.357,0,0,0,1.358-1.358V85.965a1.358,1.358,0,0,0-2.715,0v3.088H62.809V84.8a1.358,1.358,0,1,0-2.715,0v4.253H41.449l8.5-8.929a1.361,1.361,0,0,0,.311-.527l5.031-15.936,8.953,2.488a13.158,13.158,0,0,1,9.61,12.643v.849A1.357,1.357,0,0,0,75.208,81ZM68.873,22.264a1.9,1.9,0,1,1,1.9-1.9A1.9,1.9,0,0,1,68.873,22.264ZM35.957,74.935h4.652l1.829,9.141-4.155,4.365-4.155-4.365ZM41.1,72.22H35.463l-2.3-2.649,5.115-5.115L43.4,69.572Zm3.706-5.078L40.2,62.537l4.6-4.6,2.818,2.817ZM60.275,32.128a2.265,2.265,0,0,1-2.263,2.262H56.654V27.331h1.358a2.266,2.266,0,0,1,2.263,2.263Zm-1.629-7.47a4.981,4.981,0,0,0-.634-.042H56.654V21.358h1.991Zm-40.726-3.3h1.991v3.258H18.553a4.982,4.982,0,0,0-.634.041Zm1.991,13.032H18.553a2.266,2.266,0,0,1-2.263-2.263V29.594a2.266,2.266,0,0,1,2.263-2.263h1.358Zm2.715-1.358V21.358H53.939V33.033a15.657,15.657,0,1,1-31.313,0ZM38.283,51.4a18.327,18.327,0,0,0,5.159-.738v4.791l-5.159,5.159-5.159-5.159V50.666A18.3,18.3,0,0,0,38.283,51.4ZM31.766,57.94l4.6,4.6-4.606,4.606-2.809-6.384ZM23.9,62.934l2.712-.753,3.459,7.862a1.374,1.374,0,0,0,.075.146c.007.013.015.024.023.037.019.03.039.06.061.089s.023.03.035.045.018.023.027.034l3.093,3.57-1.541,7.708L28.8,78.481ZM47.762,78.481l-3.037,3.191-1.541-7.708,3.093-3.57c.01-.011.018-.023.027-.034l.036-.046c.021-.029.041-.058.06-.088.008-.013.016-.025.024-.038a1.5,1.5,0,0,0,.074-.146l3.459-7.862,2.712.753Zm0,0" transform="translate(0 0)" fill="rgba(255,255,255,0.8)"/>
</svg>
