<svg xmlns="http://www.w3.org/2000/svg" width="77.727" height="63.644" viewBox="0 0 77.727 63.644">
  <g id="open-magazine" transform="translate(0 -42.126)">
    <path id="Path_58" data-name="Path 58" d="M227.507,163.308V125.874a1.254,1.254,0,1,0-2.507,0v37.434a1.254,1.254,0,0,0,2.507,0Z" transform="translate(-187.39 -68.705)" fill="#fff"/>
    <path id="Path_59" data-name="Path 59" d="M76.473,47.752c-2.65,0-5.953-1.144-9.45-2.354-4.428-1.533-9.448-3.271-14.653-3.271a14.977,14.977,0,0,0-13.507,7.249,14.977,14.977,0,0,0-13.507-7.249c-5.206,0-10.225,1.738-14.653,3.271-3.5,1.211-6.8,2.354-9.45,2.354A1.253,1.253,0,0,0,0,49.005V99.5a1.253,1.253,0,0,0,1.254,1.254c3.072,0,6.569-1.211,10.27-2.492,4.242-1.469,9.049-3.133,13.833-3.133a12.767,12.767,0,0,1,9.868,4.037,1.254,1.254,0,1,0,1.851-1.691,15.279,15.279,0,0,0-11.72-4.854c-5.206,0-10.225,1.738-14.653,3.271a41.836,41.836,0,0,1-8.2,2.279V50.2a41.462,41.462,0,0,0,9.016-2.43c4.242-1.469,9.049-3.133,13.833-3.133,9.675,0,12.206,7.683,12.308,8.006a1.254,1.254,0,0,0,2.4,0c.024-.08,2.571-8.006,12.308-8.006,4.784,0,9.591,1.665,13.833,3.133a41.456,41.456,0,0,0,9.016,2.43V98.172a41.846,41.846,0,0,1-8.2-2.279C62.6,94.36,57.576,92.622,52.37,92.622a15.278,15.278,0,0,0-11.72,4.854A1.254,1.254,0,1,0,42.5,99.167a12.767,12.767,0,0,1,9.869-4.037c4.784,0,9.591,1.665,13.833,3.133,3.7,1.282,7.2,2.492,10.27,2.492A1.253,1.253,0,0,0,77.727,99.5v-50.5A1.254,1.254,0,0,0,76.473,47.752Z" fill="#fff"/>
    <path id="Path_60" data-name="Path 60" d="M76.473,379.844c-2.65,0-5.953-1.144-9.45-2.354-4.428-1.534-9.448-3.271-14.653-3.271a15.36,15.36,0,0,0-11.332,4.446H36.689a15.36,15.36,0,0,0-11.332-4.445c-5.206,0-10.225,1.738-14.653,3.271-3.5,1.211-6.8,2.354-9.45,2.354a1.254,1.254,0,0,0,0,2.507c3.072,0,6.569-1.211,10.27-2.492,4.242-1.469,9.049-3.133,13.833-3.133a12.767,12.767,0,0,1,9.868,4.037,1.254,1.254,0,0,0,.926.408h5.425a1.254,1.254,0,0,0,.926-.408,12.767,12.767,0,0,1,9.869-4.037c4.784,0,9.591,1.665,13.833,3.133,3.7,1.282,7.2,2.492,10.27,2.492a1.254,1.254,0,0,0,0-2.507Z" transform="translate(0 -276.581)" fill="#fff"/>
  </g>
</svg>
