<svg xmlns="http://www.w3.org/2000/svg" width="87.281" height="72.212" viewBox="0 0 87.281 72.212">
  <path id="student_1_" data-name="student (1)" d="M36.106,102.405A36.081,36.081,0,0,1,7.016,87.664a1.99,1.99,0,0,1-.274-.377,36.039,36.039,0,0,1,0-41.976,1.979,1.979,0,0,1,.274-.377A36.081,36.081,0,0,1,36.106,30.193h0A36.092,36.092,0,0,1,69.281,52.026a2,2,0,1,1-3.667,1.58,32.228,32.228,0,0,0-2.674-4.963,84.938,84.938,0,0,1-12.425,2.847,79.4,79.4,0,0,1,1.3,12.813H54.7a2,2,0,1,1,0,3.993H51.812c-.195,8.614-1.649,16.671-4.144,22.869C44.75,98.413,40.644,102.405,36.106,102.405Zm-9.558-17.9c2.294,8.643,6.052,13.9,9.558,13.9S43.372,93.15,45.666,84.5A93.253,93.253,0,0,0,26.548,84.508Zm-14.68,2.835a32.174,32.174,0,0,0,15.991,10,28.642,28.642,0,0,1-3.315-6.175,48.869,48.869,0,0,1-1.985-6.148A81.9,81.9,0,0,0,11.868,87.343ZM4.054,68.3A31.909,31.909,0,0,0,9.29,83.95,84.945,84.945,0,0,1,21.7,81.109,79.394,79.394,0,0,1,20.4,68.3H4.054Zm20.339,0a74.71,74.71,0,0,0,1.264,12.293,97.18,97.18,0,0,1,20.9-.005A74.732,74.732,0,0,0,47.819,68.3H24.393Zm0-3.993H47.819a74.738,74.738,0,0,0-1.263-12.293,96.836,96.836,0,0,1-20.9,0A74.761,74.761,0,0,0,24.393,64.3Zm-20.339,0H20.4a79.45,79.45,0,0,1,1.3-12.813A84.952,84.952,0,0,1,9.29,48.647,31.91,31.91,0,0,0,4.054,64.3ZM26.548,48.09a92.94,92.94,0,0,0,19.116,0c-2.294-8.645-6.052-13.9-9.558-13.9S28.842,39.447,26.548,48.09Zm17.8-12.832a28.644,28.644,0,0,1,3.315,6.176,48.914,48.914,0,0,1,1.985,6.149,82.006,82.006,0,0,0,10.716-2.335A32.113,32.113,0,0,0,44.353,35.258Zm-32.485,10a81.994,81.994,0,0,0,10.691,2.328,48.923,48.923,0,0,1,1.985-6.148,28.653,28.653,0,0,1,3.315-6.175A32.176,32.176,0,0,0,11.868,45.254Zm40.318,57.012a2,2,0,0,1-1.831-2.793l3.808-9.384c1.755-4.323,4.911-10.069,12.034-10.069h5.076c7.124,0,10.28,5.747,12.034,10.069l3.827,9.431a2,2,0,0,1-1.1,2.6l-.03.012H86l0,0h0l-.005,0h0l-.017.006h0l0,0h-.009a2.033,2.033,0,0,1-.728.117H52.186Zm2.965-3.993H82.319L79.608,91.59c-2.156-5.311-4.648-7.578-8.334-7.578H66.2c-3.686,0-6.179,2.266-8.335,7.578ZM68.735,76.835A8.735,8.735,0,1,1,77.469,68.1,8.745,8.745,0,0,1,68.735,76.835Zm0-13.477A4.742,4.742,0,1,0,73.477,68.1,4.747,4.747,0,0,0,68.735,63.358Z" transform="translate(0 -30.193)" fill="#fff"/>
</svg>
