<svg xmlns="http://www.w3.org/2000/svg" width="121.157" height="108.659" viewBox="0 0 121.157 108.659">
  <g id="logo" transform="translate(0.013 -652.964)">
    <g id="Слой_1" data-name="Слой 1" transform="translate(-0.013 652.964)">
      <path id="Path_101" data-name="Path 101" d="M667.935,271.28a5,5,0,0,0-9.68,0H634.14l1.871,2.5h22.248a5,5,0,1,0,9.677-2.5Zm-4.812,3.75a2.494,2.494,0,1,1,.01,0Z" transform="translate(-556.939 -234.448)" fill="rgba(0,4,57,0.55)"/>
      <path id="Path_102" data-name="Path 102" d="M642.48,61.444a5,5,0,0,0-9.713,0H613.9a1.25,1.25,0,0,0-1.25,1.25V86.819l2.5,2.124V63.819h17.618a5,5,0,1,0,9.713-2.375Zm-4.838,3.625a2.5,2.5,0,1,1,2.5-2.5A2.5,2.5,0,0,1,637.642,65.068Z" transform="translate(-538.322 -52.605)" fill="rgba(0,4,57,0.75)"/>
      <path id="Path_103" data-name="Path 103" d="M510.227,98.564a5,5,0,1,0-6.089,6.091v10.123l2.375.374a1.272,1.272,0,0,0,.124-.374V104.655A5,5,0,0,0,510.227,98.564Zm-4.84,3.716a2.5,2.5,0,1,1,.005,0Z" transform="translate(-441.064 -84.818)" fill="rgba(0,4,57,0.41)"/>
      <path id="Path_104" data-name="Path 104" d="M435.464,23.755a5,5,0,1,0-6.089,6.089V51.215a1.245,1.245,0,0,0,.124.624l2.375-1v-21A5,5,0,0,0,435.464,23.755Zm-4.844,3.716a2.5,2.5,0,1,1,2.5-2.5A2.5,2.5,0,0,1,430.621,27.471Z" transform="translate(-376.293 -20.005)" fill="rgba(62,161,210,0.7)"/>
      <path id="Path_105" data-name="Path 105" d="M141.226,370.407a5,5,0,1,0,0,2.5h7.992l1.25-2.5Zm-4.873,3.623a2.507,2.507,0,1,0-.007,0Z" transform="translate(-121.381 -320.326)" fill="rgba(62,161,210,0.7)"/>
      <path id="Path_106" data-name="Path 106" d="M82.979,445.2H66.358a5,5,0,1,0,0,2.5H83.105Zm-21.5,3.625a2.5,2.5,0,1,1,2.5-2.5A2.5,2.5,0,0,1,61.484,448.823Z" transform="translate(-56.517 -385.121)" fill="rgba(0,4,57,0.55)"/>
      <path id="Path_107" data-name="Path 107" d="M200.858,579.446v20.189h-17.75a5,5,0,1,0,0,2.375h18.874a1.25,1.25,0,0,0,1.25-1.25V579.32ZM178.237,603.26a2.5,2.5,0,1,1,2.5-2.5,2.5,2.5,0,0,1-2.5,2.5Z" transform="translate(-157.649 -504.566)" fill="rgba(0,4,57,0.41)"/>
      <path id="Path_108" data-name="Path 108" d="M444.781,596.978a5,5,0,0,0-3.59-3.591V579.32h-2.5v14.067a5,5,0,1,0,6.089,3.591Zm-4.84,3.782a2.5,2.5,0,1,1,2.5-2.5,2.5,2.5,0,0,1-2.5,2.5Z" transform="translate(-384.36 -504.566)" fill="rgba(62,161,210,0.7)"/>
      <path id="Path_109" data-name="Path 109" d="M519.609,606.975a5,5,0,0,0-3.59-3.59V579.32h-2.5v24.065a5,5,0,1,0,6.089,3.59Zm-4.84,3.782a2.5,2.5,0,1,1,2.5-2.5A2.5,2.5,0,0,1,514.769,610.758Z" transform="translate(-449.191 -504.566)" fill="rgba(0,4,57,0.41)"/>
      <path id="Path_110" data-name="Path 110" d="M594.416,596.978a5,5,0,0,0-3.591-3.591V579.32h-2.5v14.067a5,5,0,1,0,6.091,3.591Zm-4.838,3.782a2.5,2.5,0,1,1,2.5-2.5A2.5,2.5,0,0,1,589.578,600.76Z" transform="translate(-514 -504.566)" fill="rgba(0,4,57,0.75)"/>
      <path id="Path_111" data-name="Path 111" d="M770.129,553.014a5,5,0,0,0-3.667-3.663V530.6a1.251,1.251,0,0,0-1.25-1.251h-17.5l-1.375,2.5h17.746v17.5a5,5,0,1,0,6.042,3.669Zm-4.793,3.829a2.5,2.5,0,1,1,2.5-2.5A2.5,2.5,0,0,1,765.336,556.844Z" transform="translate(-654.144 -461.275)" fill="rgba(0,4,57,0.41)"/>
      <path id="Path_112" data-name="Path 112" d="M774,420.89a5,5,0,0,0-9.68,0H756.57l.75,2.5h7.006a5,5,0,1,0,9.676-2.5Zm-4.811,3.749a2.495,2.495,0,1,1,.009,0Z" transform="translate(-663.006 -364.062)" fill="#010000"/>
      <path id="Path_113" data-name="Path 113" d="M695.641,342.306a5,5,0,0,0-4.811,3.742H660.2l2,2.5h28.63a5,5,0,1,0,4.811-6.248Zm.067,7.5a2.5,2.5,0,1,1,2.5-2.5A2.5,2.5,0,0,1,695.707,349.8Z" transform="translate(-579.516 -299.224)" fill="rgba(62,161,210,0.7)"/>
      <path id="Path_114" data-name="Path 114" d="M154.488,98.567a5,5,0,1,0-6.091,6.091v18.87H119.03v-17.5a5,5,0,1,0-2.375,0v18.75a1.25,1.25,0,0,0,1.25,1.25h32.03l.962-1.562V104.657A5,5,0,0,0,154.488,98.567Zm-36.708,4.964a2.5,2.5,0,1,1,2.5-2.5A2.5,2.5,0,0,1,117.781,103.531Zm31.867-1.25a2.5,2.5,0,1,1,2.5-2.5,2.5,2.5,0,0,1-2.5,2.5Z" transform="translate(-105.314 -84.82)" fill="rgba(0,4,57,0.75)"/>
      <path id="Path_115" data-name="Path 115" d="M151.468,520.016H141.226a5,5,0,1,0,0,2.5H154.1Zm-15.121,3.623a2.5,2.5,0,1,1,2.5-2.5A2.5,2.5,0,0,1,136.346,523.64Z" transform="translate(-121.381 -449.941)" fill="rgba(62,161,210,0.7)"/>
    </g>
    <g id="Слой_2" data-name="Слой 2" transform="translate(26.212 682.588)">
      <path id="Path_116" data-name="Path 116" d="M310.131,261.339a1.39,1.39,0,0,1-1.351-1.427c-.294-8.236-6.109-14.279-13.46-17.073-8.873-3.369-21.217.472-25.362,11.2a1.337,1.337,0,0,1-1.486.855h-.134c-8.622,0-15.608,7.384-15.608,16.49s6.986,16.489,15.607,16.489h41.212c6.537-.078,11.818-5.658,11.9-12.563C321.439,268.352,316.719,261.418,310.131,261.339Zm-2.1,23.913H269.914a14.434,14.434,0,1,1,0-28.869h.124a1.251,1.251,0,0,0,1.375-.75,18.371,18.371,0,0,1,35.367,6.248,1.248,1.248,0,0,0,1.25,1.25,11.06,11.06,0,1,1,0,22.119Z" transform="translate(-252.73 -241.654)" fill="rgba(0,4,57,0.75)"/>
    </g>
  </g>
</svg>
