<svg xmlns="http://www.w3.org/2000/svg" width="80" height="65.477" viewBox="0 0 80 65.477">
  <path id="student" d="M79.235,14.876l-25.3-9.645a1.188,1.188,0,1,0-.847,2.22l22.386,8.535-15.5,5.909L40.49,13.07a1.188,1.188,0,0,0-.98,2.165l17.342,7.852L40,29.512,4.523,15.986,40,2.46l8.743,3.334a1.188,1.188,0,1,0,.847-2.22L40.423.078a1.188,1.188,0,0,0-.847,0L.764,14.876A1.189,1.189,0,0,0,0,15.986v5.426a1.189,1.189,0,0,0,.765,1.11l12.12,4.62V31.26a1.188,1.188,0,1,0,2.376,0V28.049L39.576,37.32a1.187,1.187,0,0,0,.847,0l18.329-6.988v18.8A40.256,40.256,0,0,1,15.26,45.283v-9.27a1.188,1.188,0,1,0-2.376,0v9.846a1.187,1.187,0,0,0,.445.927A42.625,42.625,0,0,0,58.752,51.8v4.809a4.514,4.514,0,1,0,2.376,0V50.544a42.348,42.348,0,0,0,5.543-3.758,1.188,1.188,0,0,0,.446-.927V27.142l12.119-4.62A1.188,1.188,0,0,0,80,21.411V15.986a1.189,1.189,0,0,0-.765-1.11ZM62.078,60.962a2.138,2.138,0,1,1-2.139-2.139A2.141,2.141,0,0,1,62.078,60.962ZM2.375,17.711,38.811,31.6v2.882L2.375,20.593ZM41.188,34.485V31.6l17.564-6.7v2.883Zm23.552,10.8a39.8,39.8,0,0,1-3.611,2.5V29.425l3.611-1.377Zm-3.611-18.4V24l16.5-6.289v2.882Zm0,0" transform="translate(0.001 0)" fill="#fff"/>
</svg>
