<svg xmlns="http://www.w3.org/2000/svg" width="92.216" height="92.22" viewBox="0 0 92.216 92.22">
  <path id="department" d="M71.484,49.2,61.512,36.5a21.424,21.424,0,0,0,6.035-13.458H82.988v1.69a7.682,7.682,0,1,0,3.073,0V21.51a1.536,1.536,0,0,0-1.536-1.536H67.547a21.371,21.371,0,0,0-4.5-11.684l2.143-2.143H83.271a4.609,4.609,0,1,0,0-3.073H64.553a1.536,1.536,0,0,0-1.086.45L60.985,6.005a21.463,21.463,0,0,0-36.3,13.968H11.781L6.759,8.677a4.594,4.594,0,1,0-3.182.408l5.8,13.05a1.536,1.536,0,0,0,1.4.911H24.686a21.415,21.415,0,0,0,5.926,13.332l-12.97,12.97a15.354,15.354,0,1,0-4.55,30.369q.38.057.762.095v7.76a1.536,1.536,0,0,0,1.536,1.536H29.5a4.609,4.609,0,1,0,0-3.073H16.926V79.812a15.354,15.354,0,0,0,4.148-29.547L32.9,38.436a21.367,21.367,0,0,0,26.3.106l8.524,10.85a21.517,21.517,0,1,0,3.756-.192ZM89.134,32.264a4.609,4.609,0,1,1-4.609-4.609A4.609,4.609,0,0,1,89.134,32.264ZM87.6,3.074A1.536,1.536,0,1,1,86.061,4.61,1.536,1.536,0,0,1,87.6,3.074ZM4.635,6.147A1.536,1.536,0,1,1,6.172,4.61,1.536,1.536,0,0,1,4.635,6.147Zm29.19,79.889a1.536,1.536,0,1,1-1.536,1.536A1.536,1.536,0,0,1,33.826,86.036ZM21.535,75.156a12.186,12.186,0,0,1-12.291,0V72.209a6.145,6.145,0,1,1,12.291,0ZM12.317,59.918a3.073,3.073,0,1,1,3.073,3.073A3.073,3.073,0,0,1,12.317,59.918Zm12.291-3.547a12.291,12.291,0,0,1,0,16.259v-.421a9.218,9.218,0,0,0-4.773-8.07,6.145,6.145,0,1,0-8.891,0,9.218,9.218,0,0,0-4.772,8.07v.421A12.291,12.291,0,1,1,24.608,56.371ZM56.871,36.449a18.305,18.305,0,0,1-21.509,0V32.725a5.07,5.07,0,0,1,5.07-5.07h3.411l-2.229,5.574a1.536,1.536,0,0,0,.341,1.658l3.073,3.073a1.536,1.536,0,0,0,2.172,0l3.073-3.073a1.537,1.537,0,0,0,.341-1.658l-2.228-5.574H51.8a5.07,5.07,0,0,1,5.07,5.07v3.724ZM46.336,11.5a1.528,1.528,0,0,0-.14.3c-.777,2.331-4.974,3.214-7.677,3.471.412-5.149,2.835-7.593,7.6-7.593,4.36,0,6.76,2.062,7.447,6.363l-5.119-3.073A1.537,1.537,0,0,0,46.336,11.5Zm1.9,2.933,5.491,3.3c-.616,3.761-5.251,6.854-7.609,6.854a9.679,9.679,0,0,1-7.468-6.225C41.278,18.141,46.027,17.344,48.235,14.434Zm-.85,19L46.116,34.7l-1.269-1.271,1.269-3.176Zm5.434-8.777A10.666,10.666,0,0,0,56.871,16.9c0-10.158-5.849-12.291-10.754-12.291S35.362,6.743,35.362,16.9a10.665,10.665,0,0,0,4.051,7.757,8.116,8.116,0,0,0-7.124,8.067v.934a18.436,18.436,0,1,1,27.654,0v-.934A8.116,8.116,0,0,0,52.819,24.653ZM81.452,85.612a18.305,18.305,0,0,1-21.509,0V81.888a5.07,5.07,0,0,1,5.07-5.07h3.411l-2.229,5.574a1.537,1.537,0,0,0,.341,1.658l3.073,3.073a1.536,1.536,0,0,0,2.172,0l3.073-3.073a1.537,1.537,0,0,0,.341-1.658l-2.228-5.574h3.415a5.07,5.07,0,0,1,5.07,5.07ZM72.816,63.6v0l5.491,3.3c-.616,3.762-5.251,6.855-7.609,6.855A9.679,9.679,0,0,1,63.23,67.52C65.86,67.3,70.609,66.506,72.816,63.6Zm-9.716.842h0c.412-5.148,2.835-7.593,7.6-7.593,4.36,0,6.76,2.062,7.447,6.363l-5.119-3.073a1.536,1.536,0,0,0-2.248.831C70,63.3,65.8,64.182,63.1,64.438Zm8.866,18.155L70.7,83.864l-1.269-1.271L70.7,79.418Zm12.558.233v-.939A8.116,8.116,0,0,0,77.4,73.816a10.666,10.666,0,0,0,4.051-7.752c0-10.158-5.849-12.291-10.754-12.291S59.943,55.905,59.943,66.064a10.665,10.665,0,0,0,4.051,7.757,8.116,8.116,0,0,0-7.124,8.067v.934a18.434,18.434,0,1,1,27.654,0Z" transform="translate(-0.011 0)" fill="rgba(255,255,255,0.8)"/>
</svg>
