<svg xmlns="http://www.w3.org/2000/svg" width="73" height="73" viewBox="0 0 73 73">
  <g id="info" transform="translate(0)">
    <path id="Path_53" data-name="Path 53" d="M412,127.426A1.426,1.426,0,1,0,413.426,126,1.426,1.426,0,0,0,412,127.426Zm0,0" transform="translate(-353.258 -108.035)" fill="#fff"/>
    <path id="Path_54" data-name="Path 54" d="M435.426,173.891a27.159,27.159,0,0,1-.544,5.418,1.426,1.426,0,0,0,1.112,1.682,1.406,1.406,0,0,0,.287.03,1.427,1.427,0,0,0,1.4-1.141,30,30,0,0,0,.6-5.988,29.619,29.619,0,0,0-2.894-12.841,1.426,1.426,0,1,0-2.574,1.227A26.791,26.791,0,0,1,435.426,173.891Zm0,0" transform="translate(-370.981 -137.391)" fill="#fff"/>
    <path id="Path_55" data-name="Path 55" d="M211.684,225.961h-1.426V207.426A1.426,1.426,0,0,0,208.832,206H197.426A1.426,1.426,0,0,0,196,207.426v5.7a1.426,1.426,0,0,0,1.426,1.426h1.426v11.406h-1.426A1.426,1.426,0,0,0,196,227.387v5.7a1.426,1.426,0,0,0,1.426,1.426h14.258a1.426,1.426,0,0,0,1.426-1.426v-5.7A1.426,1.426,0,0,0,211.684,225.961Zm-1.426,5.7H198.852v-2.852h1.426a1.426,1.426,0,0,0,1.426-1.426V213.129a1.426,1.426,0,0,0-1.426-1.426h-1.426v-2.852h8.555v18.535a1.426,1.426,0,0,0,1.426,1.426h1.426Zm0,0" transform="translate(-168.055 -176.629)" fill="#fff"/>
    <path id="Path_56" data-name="Path 56" d="M221.7,117.406a5.7,5.7,0,1,0-5.7-5.7A5.71,5.71,0,0,0,221.7,117.406Zm0-8.555a2.852,2.852,0,1,1-2.852,2.852A2.855,2.855,0,0,1,221.7,108.852Zm0,0" transform="translate(-185.204 -90.887)" fill="#fff"/>
    <path id="Path_57" data-name="Path 57" d="M36.5,0C16.827,0,0,16.8,0,36.5A38.88,38.88,0,0,0,5.18,55.8L.073,71.124a1.426,1.426,0,0,0,1.8,1.8L17.2,67.819A38.87,38.87,0,0,0,36.5,73C56.177,73,73,56.2,73,36.5,73,16.823,56.2,0,36.5,0Zm0,70.148a35.662,35.662,0,0,1-18.358-5.1,1.425,1.425,0,0,0-1.214-.148L3.68,69.32,8.1,56.072a1.424,1.424,0,0,0-.148-1.214A35.66,35.66,0,0,1,2.851,36.5C2.851,18.261,18.26,2.852,36.5,2.852S70.148,18.261,70.148,36.5,54.739,70.148,36.5,70.148Zm0,0" transform="translate(0)" fill="#fff"/>
  </g>
</svg>
